<svg width="50" height="37" xmlns="http://www.w3.org/2000/svg" version="1.1">

 <metadata id="metadata2318"/>
 <g>
  <title>Layer 1</title>
  <g   id="layer1">
   <g stroke-miterlimit="4" stroke-width="0.75591" fill="#787878"    id="g1911-8-3-9-3-2-8">
    <g fill="#787878"    id="g1121-3-8-8-2-8-7-1-2-8-3-9-6-0-1" transform="matrix(-0.404267 -0.174382 -0.174382 0.404267 678.776 389.848)">
     <path stroke-width="0.55981px" fill="#787878" d="m1661.73328,-206.03596l0,0c0.00876,0.00397 0.01711,0.00738 0.02593,0.01119c-0.18915,1.92602 -0.56391,3.94521 -1.38778,6.07396c-1.54658,3.99687 -2.97864,6.218 -3.62481,8.96047c-0.6462,2.74252 -0.38976,5.82753 1.31803,11.22806c2.03265,6.42806 6.8915,12.81948 13.78027,17.24287c1.00019,1.4767 2.10887,2.91296 3.33167,4.29281c-6.71032,-0.31687 -12.79852,-2.80259 -16.90712,-6.43782c-7.23771,-6.40363 -5.72765,-8.10929 -7.00865,-15.52855c-0.4035,-2.33716 -1.17721,-4.32221 -2.06404,-6.06096c-4.67098,0.01848 -9.0185,-0.55136 -11.31371,-1.86478c0.00005,-3.5672 2.83327,-6.48183 6.46353,-8.82633c0.61581,-6.40741 5.79437,-10.85575 12.74101,-10.22175c1.81191,0.16539 3.34419,0.53647 4.64669,1.12875l-0.00104,0.0021zm-8.12977,6.29116a-2.2993,2.34268 48.679502 0 1 -2.09668,0.00956a-2.2993,2.34268 48.679502 0 1 -1.17092,3.37832a-2.2993,2.34268 48.679502 0 1 3.35503,1.23372a-2.2993,2.34268 48.679502 0 1 1.17092,-3.37832a-2.2993,2.34268 48.679502 0 1 -1.25835,-1.24328zm26.92837,41.31509c-0.0881,0.01108 -0.17544,0.01647 -0.26349,0.02699c-0.06062,-0.05822 -0.12177,-0.11856 -0.18189,-0.17689c0.14883,0.04915 0.29556,0.10197 0.44525,0.15018l0.00012,-0.00028z" id="path819-1-94-5-3-1-9-6-4-90-0-8-9-5-8-6-1-6-2" />
    </g>
   </g>
   <g stroke-miterlimit="4" stroke-width="0.75591" fill="#ececec"    transform="matrix(-0.453996 0.366897 0.366897 0.453996 73.5273 10.8168)" id="g1051-1-2-0-8-6-0-8-1-5-6-9-6-8-9">
    <g fill="#ececec" transform="matrix(-0.352541 0.284906 0.284906 0.352541 477.11 -1021.77)" id="g3029-3-9-3">
     <path stroke-dashoffset="0" stroke-miterlimit="4" stroke-width="3.02362" fill-rule="nonzero" fill="#ececec" clip-rule="nonzero"  d="m2064.98762,1050.75119c-5.9729,-0.035 -12.0979,2.348 -17.3613,7.459c-6.9129,6.7127 -9.0602,12.7555 -7.8477,20.2949l0.332,2.0684l-2.0664,-0.336c-15.1877,-2.4609 -33.9847,-1.2178 -55.3711,7.4336c6.2868,2.6948 17.8259,7.1926 30.6309,13.3418l4.0605,1.9512l-4.414,0.8945c-16.9087,3.4274 -36.9729,13.3275 -55.2989,34.9336c8.1981,-0.6372 24.9531,-2.6089 42.4278,-2.582c9.7138,0.015 19.2869,0.687 27.0859,2.709c7.7991,2.022 14.8874,6.6498 15.8861,10.0406c0.9987,3.3908 0.432,5.1761 -0.5519,7.8285c-0.9839,2.6524 -4.0098,6.6817 -8.1953,9.3418c-4.1855,2.6601 -9.4961,4.9849 -15.0137,6.9609c-11.0352,3.9521 -22.7798,6.4773 -27.9648,6.959c-1.1021,0.1024 -1.5421,0.4983 -1.9668,1.2696c-0.4247,0.7712 -0.659,1.9824 -0.6934,3.25c-0.046,1.6926 0.217,2.576 0.6949,3.246c0.4779,0.67 1.2243,0.9381 1.9934,0.9902c32.5822,2.2052 56.9441,-5.9907 74.6379,-13.0116c20.3508,-9.3311 33.2134,-27.7577 36.0058,-44.3477c1.7499,-10.395 1.3746,-15.4894 -0.3124,-19.8281c-1.6873,-4.3387 -4.9223,-8.1914 -9.0254,-15.5488c-2.6368,-4.7281 -4.1077,-9.367 -5.0196,-13.6875l-0.1933,-0.9102l0.7265,-0.582c7.5403,-6.0446 13.6809,-12.6444 15.9102,-17.4492c-4.5742,-4.8648 -12.4787,-5.893 -21.3223,-4.9473l-0.7265,0.076l-0.5118,-0.5215c-4.7125,-4.8006 -10.5615,-7.2614 -16.5351,-7.2969l-0.0002,0.0002zm2.6484,11.2324c2.593,-0.041 4.8808,1.7566 5.502,4.3223c0.7307,3.0216 -1.0812,6.0525 -4.0469,6.7695c-2.9656,0.7176 -5.9625,-1.1502 -6.6934,-4.1719c-0.7307,-3.0216 1.0812,-6.0525 4.0469,-6.7695c0.3902,-0.094 0.7897,-0.1445 1.1914,-0.1504z" id="path3031-2-2-9" />
    </g>
   </g>
   <g stroke-miterlimit="4" stroke-width="0.75591" fill="#b2b2b2"    transform="matrix(-0.505094 0.0675489 0.0675489 0.505094 156.755 55.2435)" id="g1051-1-1-8-8-4-9-4-0-4-6-4-7-6-6-0">
    <g fill="#b2b2b2" id="g1129-5-9-8-0-7-2-7-3-8-61-1-6-8">
     <g fill="#b2b2b2" id="g1344-1-3-9-3-8-8-8-3-5-4-8">
      <g fill="#b2b2b2" id="g1121-7-7-2-3-3-7-4-5-8-2-5-9-5">
       <g fill="#b2b2b2" transform="matrix(-0.514626 0.0688237 0.0688237 0.514626 1184.36 -811.909)" id="g3006-4-5-0">
        <path stroke-dashoffset="0" stroke-miterlimit="4" stroke-width="3.02362" fill-rule="nonzero" fill="#b2b2b2" clip-rule="nonzero" d="m2022.87633,1063.17243c-1.9108,-0.039 -3.9117,0.162 -5.9785,0.6328c-0.1394,0.032 -0.2613,0.071 -0.3984,0.1036c-2.274,2.2481 -4.8127,4.5047 -7.5293,6.7168c0.8746,3.8597 2.1735,7.8829 4.4707,12.0019c3.9872,7.1495 7.2742,10.9657 9.2031,15.9258c1.9289,4.9601 2.2639,10.7945 0.4746,21.4238c-2.2183,13.178 -10.2404,27.1324 -22.959,37.4336c9.8717,-2.8792 18.2866,-8.1915 23.8575,-14.6269c6.0132,-6.9464 8.0191,-10.8762 8.7226,-14.836c0.7036,-3.9598 0.044,-8.2997 0.3242,-15.664c0.1805,-4.7447 1.1911,-8.8958 2.4766,-12.545l0.3086,-0.875l0.9219,-0.1211c8.2284,-1.0673 15.6654,-3.167 19.5097,-5.6484c-1.2349,-5.5522 -6.4807,-9.8603 -13.4277,-13.1348l-0.6621,-0.3125l-0.166,-0.7129c-2.2034,-9.4614 -9.5905,-15.5632 -19.1485,-15.7617zm4.7832,11.6856a4.82291,4.91391 17.729059 0 1 1.4473,0.2246a4.82291,4.91391 17.729059 0 1 3.0977,6.1484a4.82291,4.91391 17.729059 0 1 -6.0899,3.2129a4.82291,4.91391 17.729059 0 1 -3.0976,-6.1484a4.82291,4.91391 17.729059 0 1 4.6425,-3.4375z" id="path3008-7-0-9" />
       </g>
      </g>
     </g>
    </g>
   </g>
  </g>
 </g>
</svg>